<?xml version="1.0" standalone="no"?>
<!DOCTYPE svg PUBLIC "-//W3C//DTD SVG 20010904//EN"
 "http://www.w3.org/TR/2001/REC-SVG-20010904/DTD/svg10.dtd">
<svg version="1.0" xmlns="http://www.w3.org/2000/svg"
 width="309.000000pt" height="297.000000pt" viewBox="0 0 309.000000 297.000000"
 preserveAspectRatio="xMidYMid meet">

<g transform="translate(0.000000,297.000000) scale(0.100000,-0.100000)"
fill="#000000" stroke="none">
<path d="M1548 2903 c12 -2 32 -2 45 0 12 2 2 4 -23 4 -25 0 -35 -2 -22 -4z"/>
<path d="M1690 2900 c16 -5 -9 -8 -73 -9 -63 -1 -96 -5 -92 -11 3 -5 25 -11
48 -11 37 -1 35 -3 -18 -9 -33 -5 -62 -6 -64 -4 -2 2 4 4 15 5 12 0 8 4 -11
10 -16 5 -45 6 -64 3 -24 -5 -32 -3 -27 4 9 15 -29 8 -149 -25 -136 -39 -402
-159 -398 -180 1 -6 -5 -10 -15 -9 -9 0 -16 -4 -15 -10 1 -6 -4 -11 -11 -11
-34 0 -204 -146 -246 -211 -8 -13 -32 -42 -53 -65 -43 -47 -167 -230 -167
-247 0 -6 -7 -18 -15 -27 -8 -8 -13 -19 -10 -24 4 -5 2 -9 -3 -9 -10 0 -39
-69 -45 -105 -2 -11 -8 -29 -14 -40 -15 -27 -50 -172 -62 -260 -12 -85 -20
-318 -10 -307 4 4 9 75 12 157 4 134 22 283 33 272 3 -2 -1 -38 -8 -78 -6 -41
-12 -159 -12 -264 -1 -179 1 -196 27 -290 35 -121 99 -290 140 -365 84 -154
249 -347 397 -464 67 -54 164 -115 125 -79 -47 41 -48 54 -2 24 65 -45 195
-103 307 -139 118 -38 176 -49 166 -33 -4 6 -15 11 -26 11 -52 0 -253 77 -344
133 -228 140 -435 352 -556 572 -35 63 -39 78 -30 96 8 13 8 19 1 15 -11 -7
-14 1 -60 192 -37 146 -56 330 -45 410 7 52 9 46 15 -78 8 -156 29 -287 63
-394 13 -42 20 -73 15 -70 -5 3 -9 0 -9 -5 0 -6 6 -11 14 -11 17 0 61 -104 50
-121 -4 -7 -3 -9 3 -6 13 8 26 -20 16 -35 -3 -6 -1 -8 5 -4 13 8 56 -60 46
-75 -4 -8 -3 -9 4 -5 11 7 17 -6 13 -27 -1 -5 3 -6 8 -2 6 3 15 -4 21 -15 6
-11 7 -20 3 -20 -4 -1 6 -12 22 -26 17 -15 23 -23 15 -19 -8 3 6 -13 33 -37
26 -24 47 -48 47 -55 0 -7 10 -18 23 -24 34 -19 77 -56 70 -63 -4 -3 1 -6 10
-6 9 0 22 -9 29 -20 7 -11 16 -20 20 -20 3 0 42 -22 85 -49 274 -170 511 -228
813 -200 99 9 213 32 235 48 6 4 28 13 50 20 57 18 165 73 165 84 0 5 -8 6
-17 2 -94 -40 -245 -78 -361 -91 -120 -14 -145 -14 -260 0 -389 48 -692 216
-893 496 -68 95 -161 280 -172 345 -2 11 -7 27 -10 35 -3 8 -8 33 -12 55 -4
22 -10 44 -13 50 -9 14 -10 26 -23 165 -14 146 -3 273 36 421 53 204 198 437
338 542 22 17 35 33 31 40 -4 7 -4 9 1 5 11 -11 67 31 59 44 -4 6 -2 8 3 5 6
-4 18 4 27 18 16 25 44 36 30 13 -4 -8 -3 -10 2 -5 5 5 9 14 9 19 0 16 190
114 267 138 66 20 111 26 73 10 -36 -16 38 -12 102 5 32 9 114 18 183 22 111
5 139 2 250 -22 69 -15 140 -29 158 -32 17 -3 73 -27 124 -54 51 -27 96 -49
100 -49 5 0 30 -11 57 -25 27 -13 51 -21 54 -18 4 3 19 -2 33 -12 37 -24 171
-155 160 -155 -6 0 3 -13 19 -30 59 -62 73 -25 25 68 -16 33 -30 63 -30 67 0
33 145 -173 202 -288 26 -53 49 -129 49 -168 1 -27 29 -18 29 10 1 23 4 21 24
-18 32 -61 38 -32 10 47 -39 113 -133 250 -269 392 -89 93 -144 163 -122 154
8 -3 47 -41 86 -85 40 -43 77 -79 83 -79 6 0 6 6 -2 15 -7 8 -10 15 -7 15 2 0
38 -41 78 -91 41 -50 82 -101 92 -113 l17 -21 -4 26 c-4 28 -28 78 -66 144
-13 22 -29 51 -36 65 -27 52 -225 220 -259 220 -7 0 -19 7 -26 17 -8 9 -46 31
-85 49 -39 18 -74 39 -77 48 -4 9 -12 16 -19 16 -8 0 -21 8 -30 19 -9 10 -46
25 -87 34 -133 30 -188 49 -166 57 29 10 -61 30 -208 45 -112 12 -116 13 -52
14 45 1 65 4 56 10 -11 7 -9 10 10 14 13 2 -5 4 -41 5 -46 0 -58 -2 -40 -8z
m-321 -35 c-10 -9 -182 -56 -187 -50 -3 3 -1 5 4 5 5 1 45 12 89 25 81 24 102
29 94 20z m97 -10 c-11 -8 -31 -14 -45 -14 -26 2 -26 2 2 6 15 2 25 9 22 14
-4 5 4 9 17 9 22 -1 22 -1 4 -15z m364 -15 c33 -10 -48 -11 -140 0 l-65 7 90
0 c50 1 101 -3 115 -7z m-447 -7 c-7 -2 -19 -2 -25 0 -7 3 -2 5 12 5 14 0 19
-2 13 -5z m902 -361 c-3 -3 -11 0 -18 7 -9 10 -8 11 6 5 10 -3 15 -9 12 -12z
m250 -172 c3 -5 2 -10 -4 -10 -5 0 -13 5 -16 10 -3 6 -2 10 4 10 5 0 13 -4 16
-10z m-2269 -432 c-6 -23 -12 -35 -14 -26 -3 14 14 68 21 68 2 0 -1 -19 -7
-42z m-19 -70 c-3 -8 -6 -5 -6 6 -1 11 2 17 5 13 3 -3 4 -12 1 -19z"/>
<path d="M1448 2893 c6 -2 18 -2 25 0 6 3 1 5 -13 5 -14 0 -19 -2 -12 -5z"/>
<path d="M1848 2893 c6 -2 18 -2 25 0 6 3 1 5 -13 5 -14 0 -19 -2 -12 -5z"/>
<path d="M1908 2883 c6 -2 18 -2 25 0 6 3 1 5 -13 5 -14 0 -19 -2 -12 -5z"/>
<path d="M1885 2866 c44 -7 115 -23 158 -35 44 -13 81 -21 83 -18 9 8 -194 57
-257 62 -63 5 -63 5 16 -9z"/>
<path d="M1968 2873 c7 -3 16 -2 19 1 4 3 -2 6 -13 5 -11 0 -14 -3 -6 -6z"/>
<path d="M2008 2863 c7 -3 16 -2 19 1 4 3 -2 6 -13 5 -11 0 -14 -3 -6 -6z"/>
<path d="M2135 2855 c17 -8 37 -14 45 -14 8 0 0 6 -19 14 -42 19 -66 18 -26 0z"/>
<path d="M2055 2850 c11 -5 27 -9 35 -9 9 0 8 4 -5 9 -11 5 -27 9 -35 9 -9 0
-8 -4 5 -9z"/>
<path d="M2510 2606 c0 -2 8 -10 18 -17 15 -13 16 -12 3 4 -13 16 -21 21 -21
13z"/>
<path d="M2565 2560 c10 -11 20 -20 23 -20 3 0 -3 9 -13 20 -10 11 -20 20 -23
20 -3 0 3 -9 13 -20z"/>
<path d="M1004 2455 c-16 -12 -17 -14 -3 -15 9 0 19 7 23 15 7 19 5 19 -20 0z"/>
<path d="M2495 2270 c10 -11 20 -20 23 -20 3 0 -3 9 -13 20 -10 11 -20 20 -23
20 -3 0 3 -9 13 -20z"/>
<path d="M2862 1605 c0 -11 4 -31 8 -45 6 -20 8 -21 8 -5 0 11 -4 31 -8 45 -6
20 -8 21 -8 5z"/>
<path d="M181 1314 c0 -11 3 -14 6 -6 3 7 2 16 -1 19 -3 4 -6 -2 -5 -13z"/>
<path d="M197 1273 c-4 -3 -7 -20 -6 -37 l1 -31 8 35 c9 36 8 45 -3 33z"/>
<path d="M206 1195 c-3 -9 -6 -22 -5 -28 0 -7 5 -1 10 12 5 13 8 26 5 28 -2 2
-6 -3 -10 -12z"/>
</g>
</svg>
