<svg xmlns="http://www.w3.org/2000/svg" xmlns:xlink="http://www.w3.org/1999/xlink" width="1366" zoomAndPan="magnify" viewBox="0 0 1024.5 576" height="768" preserveAspectRatio="xMidYMid meet" version="1.0"><defs><clipPath id="0f3f3efd0b"><path d="M 424 208 L 582.765625 208 L 582.765625 358.765625 L 424 358.765625 Z M 424 208 " clip-rule="nonzero"/></clipPath><clipPath id="ff12c43eda"><path d="M 396.855469 172.855469 L 563 172.855469 L 563 311 L 396.855469 311 Z M 396.855469 172.855469 " clip-rule="nonzero"/></clipPath><clipPath id="9613417415"><path d="M 396.855469 207 L 514 207 L 514 311 L 396.855469 311 Z M 396.855469 207 " clip-rule="nonzero"/></clipPath></defs><g clip-path="url(#0f3f3efd0b)"><path fill="#000000" d="M 582.765625 265.8125 C 582.765625 317.164062 541.164062 358.765625 489.8125 358.765625 C 489.726562 358.765625 489.601562 358.765625 489.515625 358.765625 C 464.175781 358.679688 441.234375 348.46875 424.507812 331.953125 L 498.425781 331.953125 C 507.25 331.953125 514.816406 330.359375 521.117188 327.207031 C 527.421875 324.011719 532.253906 319.726562 535.574219 314.222656 C 538.9375 308.757812 540.617188 302.621094 540.617188 295.773438 C 540.617188 286.824219 537.757812 279.300781 532.042969 273.207031 C 529.101562 270.054688 525.488281 267.449219 521.242188 265.347656 C 524.226562 263.667969 526.832031 261.691406 528.933594 259.421875 C 533.894531 254.128906 536.332031 247.65625 536.332031 240.007812 C 536.332031 234 534.859375 228.535156 531.917969 223.621094 C 528.976562 218.660156 524.691406 214.753906 519.144531 211.8125 C 516.074219 210.214844 512.628906 209.039062 508.847656 208.28125 L 570.453125 219.585938 C 578.269531 233.199219 582.765625 248.960938 582.765625 265.8125 Z M 582.765625 265.8125 " fill-opacity="1" fill-rule="nonzero"/></g><g clip-path="url(#ff12c43eda)"><path fill="#ed1c24" d="M 510.949219 285.519531 C 512.378906 288 513.050781 290.816406 513.050781 294.007812 C 513.050781 298.589844 511.535156 302.496094 508.46875 305.648438 C 505.402344 308.84375 501.15625 310.398438 495.777344 310.398438 L 408.246094 310.398438 C 400.972656 297.160156 396.855469 281.949219 396.855469 265.8125 C 396.855469 263.289062 396.941406 260.769531 397.152344 258.289062 C 397.695312 251.566406 398.957031 245.050781 400.847656 238.789062 C 412.445312 200.632812 447.871094 172.855469 489.8125 172.855469 C 519.015625 172.855469 545.070312 186.304688 562.089844 207.355469 L 499.855469 207.355469 C 499.519531 207.355469 499.140625 207.355469 498.761719 207.355469 L 448.082031 207.355469 L 448.082031 296.402344 L 472.664062 296.402344 L 472.664062 277.578125 L 495.777344 277.578125 C 499.433594 277.578125 502.5 278.292969 505.023438 279.679688 C 507.585938 281.105469 509.519531 283.039062 510.949219 285.519531 Z M 504.601562 232.320312 C 501.789062 230.007812 498.089844 228.871094 493.507812 228.871094 L 472.664062 228.871094 L 472.664062 256.566406 L 493.507812 256.566406 C 498.089844 256.566406 501.789062 255.429688 504.601562 253.121094 C 507.417969 250.808594 508.847656 247.320312 508.847656 242.613281 C 508.847656 238.074219 507.417969 234.628906 504.601562 232.320312 Z M 504.601562 232.320312 " fill-opacity="1" fill-rule="nonzero"/></g><g clip-path="url(#9613417415)"><path fill="#b7000e" d="M 508.847656 242.65625 C 508.847656 247.363281 507.417969 250.851562 504.601562 253.160156 C 501.789062 255.472656 498.089844 256.609375 493.507812 256.609375 L 472.664062 256.609375 L 472.664062 228.914062 L 493.507812 228.914062 C 498.089844 228.914062 501.789062 230.050781 504.601562 232.359375 C 507.417969 234.628906 508.847656 238.074219 508.847656 242.65625 Z M 510.949219 285.519531 C 509.519531 283.039062 507.542969 281.105469 505.023438 279.679688 C 502.5 278.25 499.390625 277.578125 495.777344 277.578125 L 472.664062 277.578125 L 472.664062 296.402344 L 448.082031 296.402344 L 448.082031 207.355469 L 400.847656 238.789062 C 398.957031 245.007812 397.695312 251.566406 397.152344 258.289062 C 396.941406 260.769531 396.855469 263.289062 396.855469 265.8125 C 396.855469 281.988281 400.972656 297.160156 408.246094 310.398438 L 495.777344 310.398438 C 501.199219 310.398438 505.445312 308.800781 508.46875 305.648438 C 511.535156 302.453125 513.050781 298.589844 513.050781 294.007812 C 513.089844 290.816406 512.378906 288 510.949219 285.519531 Z M 510.949219 285.519531 " fill-opacity="1" fill-rule="nonzero"/></g></svg>